<svg width="24" height="24" viewBox="0 0 24 24" fill="none" xmlns="http://www.w3.org/2000/svg">
<path d="M20.9992 0H2.99988C1.3476 0 0 1.3547 0 2.97327V16.5014C0 18.1624 1.3476 19.4747 2.99988 19.4747H7.49971V23.4318C7.49971 23.8953 8.01625 24.1646 8.39592 23.8889L14.2504 19.4747H21.0001C22.6524 19.4747 24 18.12 24 16.5014V2.97327C23.9991 1.3547 22.6913 0 20.9992 0ZM21.7913 16.5862C21.7913 16.9985 21.4515 17.3402 21.0414 17.3402H13.5417L9.7918 20.1674V17.3402H3.04207C2.63193 17.3402 2.2921 16.9985 2.2921 16.5862V3.01568C2.2921 2.60338 2.63193 2.26176 3.04207 2.26176H21.0414C21.4515 2.26176 21.7913 2.60338 21.7913 3.01568V16.5862Z" fill="currentColor"/>
</svg>

